<svg width="178" height="64" viewBox="0 0 178 64" fill="none" xmlns="http://www.w3.org/2000/svg">
<path d="M170.769 0H7.23087C3.23737 0 0 3.43845 0 7.68V56.32C0 60.5616 3.23737 64 7.23087 64H170.769C174.763 64 178 60.5616 178 56.32V7.68C178 3.43845 174.763 0 170.769 0Z" fill="black"/>
<path fill-rule="evenodd" clip-rule="evenodd" d="M38.967 30.5347C38.9282 25.9568 42.4962 23.7296 42.6594 23.6259C40.6387 20.4967 37.5066 20.0692 36.406 20.0351C33.7754 19.7411 31.2238 21.7069 29.8838 21.7069C28.517 21.7069 26.4535 20.0635 24.2295 20.1118C21.3676 20.1587 18.6902 21.9186 17.2218 24.6514C14.1914 30.2237 16.4515 38.4123 19.3549 42.9164C20.8072 45.1237 22.5043 47.5853 24.7256 47.4986C26.8988 47.4049 27.7106 46.0271 30.3331 46.0271C32.9316 46.0271 33.6938 47.4986 35.9593 47.4418C38.2916 47.4049 39.76 45.2274 41.1616 43.0002C42.8399 40.4747 43.5139 37.9819 43.5407 37.8541C43.4872 37.8356 39.0124 36.0218 38.967 30.5347Z" fill="white"/>
<path fill-rule="evenodd" clip-rule="evenodd" d="M34.6869 17.0722C35.8558 15.5197 36.6555 13.4076 36.4335 11.2642C34.7418 11.3437 32.6261 12.507 31.4078 14.0254C30.3299 15.3635 29.367 17.5566 29.6157 19.619C31.5161 19.7695 33.4673 18.6006 34.6869 17.0722Z" fill="white"/>
<path fill-rule="evenodd" clip-rule="evenodd" d="M70.4454 47.1821H67.4083L65.7447 41.6297H59.962L58.3773 47.1821H55.4204L61.1509 28.2793H64.6895L70.4454 47.1821ZM65.2432 39.3002L63.7387 34.3657C63.5795 33.8601 63.28 32.6726 62.8413 30.8034H62.7878C62.6113 31.6073 62.3291 32.7948 61.9426 34.3657L60.4635 39.3002H65.2432Z" fill="white"/>
<path fill-rule="evenodd" clip-rule="evenodd" d="M85.1531 40.1995C85.1531 42.5176 84.5606 44.3499 83.3744 45.695C82.3125 46.8924 80.9926 47.4904 79.4185 47.4904C77.7188 47.4904 76.4964 46.847 75.7542 45.5558V52.7076H72.903V38.032C72.903 36.576 72.8669 35.0832 72.7974 33.552H75.3049L75.464 35.7138H75.5175C76.4684 34.0846 77.9114 33.2708 79.8478 33.2708C81.3617 33.2708 82.6255 33.9057 83.6365 35.1769C84.6462 36.451 85.1531 38.1243 85.1531 40.1995ZM82.2483 40.3103C82.2483 38.9836 81.9675 37.8899 81.4031 37.0291C80.7866 36.1329 79.9588 35.6826 78.921 35.6826C78.2176 35.6826 77.5784 35.9326 77.0073 36.4269C76.4349 36.9226 76.0605 37.5717 75.8853 38.3771C75.797 38.7507 75.7529 39.0561 75.7529 39.2975V41.573C75.7529 42.5616 76.0391 43.3982 76.6115 44.0829C77.1838 44.7647 77.9274 45.107 78.8421 45.107C79.916 45.107 80.7519 44.6652 81.3497 43.7889C81.9488 42.9096 82.2483 41.7506 82.2483 40.3103Z" fill="white"/>
<path fill-rule="evenodd" clip-rule="evenodd" d="M99.9137 40.1995C99.9137 42.5176 99.3212 44.3499 98.135 45.695C97.0718 46.8924 95.7532 47.4904 94.1778 47.4904C92.4794 47.4904 91.2571 46.847 90.5135 45.5558V52.7076H87.6623V38.032C87.6623 36.576 87.6262 35.0832 87.5566 33.552H90.0642L90.2233 35.7138H90.2768C91.2263 34.0846 92.6693 33.2708 94.6071 33.2708C96.1196 33.2708 97.3848 33.9057 98.3971 35.1769C99.4055 36.451 99.9137 38.1243 99.9137 40.1995ZM97.0076 40.3103C97.0076 38.9836 96.7254 37.8899 96.1611 37.0291C95.5459 36.1329 94.7194 35.6826 93.6817 35.6826C92.9782 35.6826 92.339 35.9326 91.7653 36.4269C91.1942 36.9226 90.8198 37.5717 90.6446 38.3771C90.5576 38.7507 90.5108 39.0561 90.5108 39.2975V41.573C90.5108 42.5616 90.7984 43.3982 91.3681 44.0829C91.9404 44.7633 92.684 45.107 93.6014 45.107C94.6766 45.107 95.5125 44.6652 96.1089 43.7889C96.7081 42.9096 97.0076 41.7506 97.0076 40.3103Z" fill="white"/>
<path fill-rule="evenodd" clip-rule="evenodd" d="M116.417 41.8814C116.417 43.4893 115.889 44.7975 114.835 45.8074C113.677 46.9096 112.06 47.4622 109.987 47.4622C108.072 47.4622 106.537 47.0701 105.378 46.2846L106.038 43.7606C107.288 44.5461 108.662 44.9395 110.157 44.9395C111.232 44.9395 112.068 44.681 112.664 44.1682C113.263 43.6526 113.564 42.9666 113.564 42.1086C113.564 41.3402 113.316 40.6953 112.823 40.1712C112.33 39.6499 111.514 39.1613 110.369 38.7153C107.253 37.481 105.694 35.6742 105.694 33.3007C105.694 31.7496 106.245 30.4798 107.343 29.4869C108.442 28.4955 109.9 27.9998 111.713 27.9998C113.333 27.9998 114.682 28.2995 115.754 28.8975L115.038 31.3661C114.03 30.7866 112.892 30.4968 111.618 30.4968C110.613 30.4968 109.822 30.7596 109.259 31.2823C108.785 31.7496 108.543 32.3192 108.543 32.9953C108.543 33.741 108.817 34.3603 109.364 34.8447C109.837 35.2935 110.701 35.7807 111.95 36.3034C113.483 36.9597 114.607 37.7239 115.33 38.6017C116.056 39.4795 116.417 40.5746 116.417 41.8814Z" fill="white"/>
<path fill-rule="evenodd" clip-rule="evenodd" d="M125.868 35.8248H122.725V42.4424C122.725 44.1256 123.279 44.9651 124.389 44.9651C124.898 44.9651 125.321 44.9196 125.655 44.8244L125.734 47.1241C125.172 47.3471 124.433 47.4593 123.518 47.4593C122.391 47.4593 121.512 47.0928 120.876 46.3642C120.242 45.6341 119.925 44.4111 119.925 42.6896V35.8191H118.054V33.5464H119.925V31.0508L122.725 30.1531V33.5464H125.868V35.8248Z" fill="white"/>
<path fill-rule="evenodd" clip-rule="evenodd" d="M140.019 40.255C140.019 42.3501 139.456 44.0702 138.329 45.4154C137.151 46.7988 135.583 47.4906 133.63 47.4906C131.744 47.4906 130.245 46.8272 129.127 45.5006C128.009 44.1739 127.45 42.5007 127.45 40.4823C127.45 38.3701 128.029 36.6401 129.179 35.295C130.332 33.9498 131.886 33.2751 133.84 33.2751C135.724 33.2751 137.235 33.9413 138.381 35.2666C139.475 36.5549 140.019 38.2153 140.019 40.255ZM137.064 40.3246C137.064 39.0761 136.81 38.0051 136.3 37.1088C135.702 36.0265 134.845 35.4867 133.738 35.4867C132.597 35.4867 131.718 36.0265 131.123 37.1088C130.611 38.0051 130.358 39.0945 130.358 40.3814C130.358 41.6314 130.611 42.7052 131.123 43.5972C131.74 44.681 132.6 45.2222 133.715 45.2222C134.804 45.2222 135.658 44.6682 136.277 43.5717C136.8 42.6541 137.064 41.576 137.064 40.3246Z" fill="white"/>
<path fill-rule="evenodd" clip-rule="evenodd" d="M149.29 36.2153C149.008 36.1599 148.706 36.1329 148.392 36.1329C147.389 36.1329 146.613 36.532 146.067 37.3388C145.593 38.049 145.356 38.9467 145.356 40.0305V47.1822H142.505V37.8445C142.505 36.2749 142.477 34.8417 142.422 33.5534H144.905L145.01 36.1613H145.089C145.391 35.265 145.864 34.542 146.514 34.0023C147.151 33.5136 147.835 33.2708 148.575 33.2708C148.838 33.2708 149.076 33.2921 149.288 33.3261L149.29 36.2153Z" fill="white"/>
<path fill-rule="evenodd" clip-rule="evenodd" d="M162.042 39.7223C162.042 40.2649 162.008 40.7223 161.937 41.0958H153.385C153.416 42.4424 153.832 43.4736 154.625 44.1838C155.345 44.8173 156.279 45.1355 157.422 45.1355C158.689 45.1355 159.844 44.9224 160.883 44.4906L161.33 46.5928C160.116 47.1539 158.681 47.4351 157.028 47.4351C155.038 47.4351 153.476 46.813 152.339 45.5715C151.206 44.3287 150.637 42.6569 150.637 40.566C150.637 38.5121 151.164 36.8005 152.223 35.4355C153.33 33.9782 154.827 33.2495 156.71 33.2495C158.559 33.2495 159.959 33.9782 160.909 35.4355C161.663 36.5903 162.042 38.0221 162.042 39.7223ZM159.323 38.9368C159.343 38.0377 159.156 37.265 158.769 36.6088C158.276 35.7651 157.516 35.3446 156.498 35.3446C155.565 35.3446 154.807 35.7551 154.229 36.5789C153.754 37.2337 153.472 38.0221 153.385 38.934L159.323 38.9368Z" fill="white"/>
<path fill-rule="evenodd" clip-rule="evenodd" d="M63.8676 21.514H62.3738L61.5567 18.7854H58.7148L57.9351 21.514H56.4814L59.2979 12.2231H61.0364L63.8676 21.514ZM61.3106 17.6406L60.571 15.2145C60.4935 14.9659 60.3504 14.3878 60.1297 13.4646H60.103C60.012 13.8637 59.8823 14.4432 59.6871 15.2145L58.9609 17.6406H61.3106Z" fill="white"/>
<path fill-rule="evenodd" clip-rule="evenodd" d="M70.9093 14.8154L68.5208 21.5141H67.1581L64.8472 14.8154H66.353L67.4309 18.3579C67.6128 18.9502 67.7679 19.5156 67.8843 20.0525H67.9231C68.0274 19.5709 68.1825 19.0056 68.3764 18.3579L69.4409 14.8154H70.9093Z" fill="white"/>
<path fill-rule="evenodd" clip-rule="evenodd" d="M75.9954 21.5141L75.8911 20.7429H75.8523C75.4244 21.3636 74.8012 21.6661 74.0095 21.6661C72.8808 21.6661 72.0757 20.8252 72.0757 19.6946C72.0757 18.0413 73.4251 17.1862 75.7614 17.1862V17.0626C75.7614 16.1805 75.3201 15.7388 74.4508 15.7388C73.8276 15.7388 73.282 15.905 72.8032 16.2359L72.5183 15.2573C73.1028 14.8709 73.8289 14.6777 74.6862 14.6777C76.3338 14.6777 77.1656 15.601 77.1656 17.4489V19.9162C77.1656 20.5923 77.1923 21.1164 77.2565 21.5156L75.9954 21.5141ZM75.8002 18.1776C74.2422 18.1776 73.4638 18.5782 73.4638 19.5284C73.4638 20.2315 73.8664 20.5753 74.4241 20.5753C75.1382 20.5753 75.8002 19.9972 75.8002 19.2117V18.1776Z" fill="white"/>
<path fill-rule="evenodd" clip-rule="evenodd" d="M80.2865 13.7117C79.8198 13.7117 79.4561 13.3253 79.4561 12.8154C79.4561 12.3055 79.8318 11.9333 80.3133 11.9333C80.7934 11.9333 81.1826 12.3055 81.1692 12.8154C81.1692 13.3538 80.8068 13.7117 80.2865 13.7117ZM79.6125 14.8154H81.0141V21.514H79.6125V14.8154Z" fill="white"/>
<path fill-rule="evenodd" clip-rule="evenodd" d="M83.5044 11.7415H84.9059V21.5138H83.5044V11.7415Z" fill="white"/>
<path fill-rule="evenodd" clip-rule="evenodd" d="M90.8621 21.5141L90.7565 20.7428H90.719C90.2911 21.3635 89.6679 21.6661 88.8762 21.6661C87.7475 21.6661 86.9424 20.8252 86.9424 19.6946C86.9424 18.0412 88.2918 17.1861 90.6281 17.1861V17.0626C90.6281 16.1805 90.1868 15.7387 89.3175 15.7387C88.6943 15.7387 88.1487 15.9049 87.6699 16.2359L87.3837 15.2558C87.9681 14.8694 88.6943 14.6763 89.5515 14.6763C91.1991 14.6763 92.0323 15.5995 92.0323 17.4475V19.9147C92.0323 20.5908 92.059 21.115 92.1206 21.5141H90.8621ZM90.6669 18.1776C89.1089 18.1776 88.3305 18.5781 88.3305 19.5284C88.3305 20.2315 88.7331 20.5752 89.2908 20.5752C90.0049 20.5752 90.6669 19.9971 90.6669 19.2116V18.1776Z" fill="white"/>
<path fill-rule="evenodd" clip-rule="evenodd" d="M97.7098 21.6658C96.8151 21.6658 96.1545 21.2653 95.7252 20.4798H95.6984L95.6182 21.5138H94.4253C94.4627 20.9769 94.4761 20.369 94.4761 19.7085V11.7415H95.8803V15.7953H95.9057C96.3216 15.051 96.9957 14.6789 97.9171 14.6789C99.4363 14.6789 100.501 16.0581 100.501 18.0694C100.501 20.1488 99.3186 21.6658 97.7098 21.6658ZM97.4249 15.8478C96.6185 15.8478 95.8803 16.5921 95.8803 17.6262V18.798C95.8803 19.7213 96.5436 20.4798 97.3995 20.4798C98.4493 20.4798 99.0752 19.5707 99.0752 18.1233C99.0739 16.7725 98.4239 15.8478 97.4249 15.8478Z" fill="white"/>
<path fill-rule="evenodd" clip-rule="evenodd" d="M102.575 11.7415H103.975V21.5138H102.575V11.7415Z" fill="white"/>
<path fill-rule="evenodd" clip-rule="evenodd" d="M111.603 18.5226H107.396C107.424 19.791 108.213 20.5069 109.38 20.5069C110.005 20.5069 110.576 20.3961 111.081 20.1901L111.299 21.2242C110.703 21.4997 110.002 21.6375 109.185 21.6375C107.211 21.6375 106.043 20.3137 106.043 18.2612C106.043 16.2073 107.239 14.6633 109.028 14.6633C110.636 14.6633 111.651 15.9318 111.651 17.8479C111.655 18.1092 111.643 18.3436 111.603 18.5226ZM110.319 17.4615C110.319 16.4275 109.824 15.6974 108.928 15.6974C108.123 15.6974 107.489 16.4417 107.396 17.4615H110.319Z" fill="white"/>
<path fill-rule="evenodd" clip-rule="evenodd" d="M120.097 21.6661C118.254 21.6661 117.06 20.2045 117.06 18.2202C117.06 16.1521 118.28 14.6777 120.203 14.6777C122.018 14.6777 123.24 16.0697 123.24 18.1109C123.24 20.2045 121.98 21.6661 120.097 21.6661ZM120.151 15.7658C119.138 15.7658 118.49 16.7714 118.49 18.1776C118.49 19.5568 119.152 20.5625 120.137 20.5625C121.123 20.5625 121.785 19.4872 121.785 18.1492C121.785 16.7856 121.136 15.7658 120.151 15.7658Z" fill="white"/>
<path fill-rule="evenodd" clip-rule="evenodd" d="M130.775 21.5141H129.376V17.6676C129.376 16.483 128.947 15.8893 128.103 15.8893C127.273 15.8893 126.7 16.6478 126.7 17.5299V21.5141H125.302V16.7302C125.302 16.1379 125.285 15.5029 125.248 14.814H126.481L126.547 15.8481H126.587C126.96 15.1322 127.727 14.6763 128.585 14.6763C129.906 14.6763 130.775 15.7515 130.775 17.5015V21.5141Z" fill="white"/>
<path fill-rule="evenodd" clip-rule="evenodd" d="M139.945 15.9319H138.403V19.1846C138.403 20.0127 138.675 20.4261 139.219 20.4261C139.465 20.4261 139.675 20.3977 139.842 20.3565L139.881 21.4871C139.608 21.5979 139.243 21.6533 138.793 21.6533C137.687 21.6533 137.029 21.0056 137.029 19.3096V15.9319H136.11V14.8155H137.029V13.5882L138.403 13.1465V14.814H139.945V15.9319Z" fill="white"/>
<path fill-rule="evenodd" clip-rule="evenodd" d="M147.367 21.5138H145.965V17.6958C145.965 16.497 145.535 15.8905 144.693 15.8905C143.967 15.8905 143.293 16.4146 143.293 17.4756V21.5138H141.89V11.7415H143.293V15.7655H143.319C143.759 15.0354 144.397 14.676 145.214 14.676C146.55 14.676 147.367 15.7782 147.367 17.5296V21.5138Z" fill="white"/>
<path fill-rule="evenodd" clip-rule="evenodd" d="M154.529 18.5226H150.323C150.349 19.791 151.138 20.5069 152.307 20.5069C152.933 20.5069 153.503 20.3961 154.006 20.1901L154.225 21.2242C153.63 21.4997 152.928 21.6375 152.109 21.6375C150.137 21.6375 148.969 20.3137 148.969 18.2612C148.969 16.2073 150.163 14.6633 151.953 14.6633C153.562 14.6633 154.575 15.9318 154.575 17.8479C154.581 18.1092 154.567 18.3436 154.529 18.5226ZM153.243 17.4615C153.243 16.4275 152.751 15.6974 151.855 15.6974C151.05 15.6974 150.415 16.4417 150.323 17.4615H153.243Z" fill="white"/>
</svg>
