<svg width="608" height="435" viewBox="0 0 608 435" fill="none" xmlns="http://www.w3.org/2000/svg">
<path d="M484 427L484 427.5L484 427ZM1.64636 426.646C1.4511 426.842 1.4511 427.158 1.64636 427.354L4.82834 430.536C5.0236 430.731 5.34019 430.731 5.53545 430.536C5.73071 430.34 5.73071 430.024 5.53545 429.828L2.70702 427L5.53545 424.172C5.73071 423.976 5.73071 423.66 5.53545 423.464C5.34019 423.269 5.0236 423.269 4.82834 423.464L1.64636 426.646ZM606 58.975L606.5 58.975L606 58.975ZM606 305L606.5 305L606 305ZM1.99991 427.5L12.0416 427.5L12.0416 426.5L1.99991 426.5L1.99991 427.5ZM32.1249 427.5L52.2083 427.5L52.2083 426.5L32.1249 426.5L32.1249 427.5ZM72.2917 427.5L92.375 427.5L92.375 426.5L72.2916 426.5L72.2917 427.5ZM112.458 427.5L132.542 427.5L132.542 426.5L112.458 426.5L112.458 427.5ZM152.625 427.5L172.708 427.5L172.708 426.5L152.625 426.5L152.625 427.5ZM192.792 427.5L212.875 427.5L212.875 426.5L192.792 426.5L192.792 427.5ZM232.959 427.5L253.042 427.5L253.042 426.5L232.959 426.5L232.959 427.5ZM273.125 427.5L293.209 427.5L293.209 426.5L273.125 426.5L273.125 427.5ZM313.292 427.5L333.375 427.5L333.375 426.5L313.292 426.5L313.292 427.5ZM353.459 427.5L373.542 427.5L373.542 426.5L353.459 426.5L353.459 427.5ZM393.625 427.5L413.709 427.5L413.709 426.5L393.625 426.5L393.625 427.5ZM433.792 427.5L453.875 427.5L453.875 426.5L433.792 426.5L433.792 427.5ZM473.959 427.5L484 427.5L484 426.5L473.959 426.5L473.959 427.5ZM484 427.5C487.238 427.5 490.446 427.374 493.621 427.128L493.543 426.131C490.394 426.375 487.212 426.5 484 426.5L484 427.5ZM512.609 424.141C518.907 422.635 525.015 420.642 530.892 418.204L530.509 417.281C524.68 419.698 518.622 421.674 512.377 423.169L512.609 424.141ZM548.014 409.464C553.496 406.098 558.692 402.312 563.559 398.152L562.909 397.392C558.082 401.518 552.928 405.273 547.491 408.612L548.014 409.464ZM577.152 384.559C581.313 379.692 585.098 374.496 588.464 369.014L587.612 368.491C584.273 373.928 580.519 379.082 576.392 383.909L577.152 384.559ZM597.205 351.892C599.642 346.014 601.635 339.906 603.142 333.609L602.169 333.376C600.675 339.622 598.698 345.68 596.281 351.509L597.205 351.892ZM606.128 314.62C606.375 311.446 606.5 308.238 606.5 305L605.5 305C605.5 308.212 605.376 311.394 605.131 314.543L606.128 314.62ZM606.5 305L606.5 294.749L605.5 294.749L605.5 305L606.5 305ZM606.5 274.247L606.5 253.745L605.5 253.745L605.5 274.247L606.5 274.247ZM606.5 233.243L606.5 212.741L605.5 212.741L605.5 233.243L606.5 233.243ZM606.5 192.239L606.5 171.736L605.5 171.736L605.5 192.239L606.5 192.239ZM606.5 151.234L606.5 130.732L605.5 130.732L605.5 151.234L606.5 151.234ZM606.5 110.23L606.5 89.7281L605.5 89.7281L605.5 110.23L606.5 110.23ZM606.5 69.226L606.5 58.975L605.5 58.975L605.5 69.226L606.5 69.226ZM606.5 58.975C606.5 55.1688 606.127 51.4493 605.415 47.8511L604.434 48.0452C605.134 51.5798 605.5 55.2343 605.5 58.975L606.5 58.975ZM596.899 27.3038C592.738 21.0879 587.387 15.7362 581.171 11.5745L580.615 12.4055C586.722 16.4944 591.98 21.7528 596.068 27.8601L596.899 27.3038ZM560.624 3.05737C557.026 2.34538 553.306 1.97206 549.5 1.97185L549.5 2.97185C553.241 2.97205 556.895 3.33893 560.43 4.03835L560.624 3.05737ZM484 427L484 428L484 427ZM1.29281 426.293C0.902282 426.683 0.902283 427.317 1.29281 427.707L7.65677 434.071C8.04729 434.462 8.68046 434.462 9.07098 434.071C9.46151 433.681 9.46151 433.047 9.07098 432.657L3.41413 427L9.07098 421.343C9.46151 420.953 9.46151 420.319 9.07098 419.929C8.68046 419.538 8.04729 419.538 7.65677 419.929L1.29281 426.293ZM606 58.975L607 58.975L606 58.975ZM606 305L607 305L606 305ZM1.99991 428L12.0416 428L12.0416 426L1.99991 426L1.99991 428ZM32.1249 428L52.2083 428L52.2083 426L32.1249 426L32.1249 428ZM72.2916 428L92.375 428L92.375 426L72.2916 426L72.2916 428ZM112.458 428L132.542 428L132.542 426L112.458 426L112.458 428ZM152.625 428L172.708 428L172.708 426L152.625 426L152.625 428ZM192.792 428L212.875 428L212.875 426L192.792 426L192.792 428ZM232.958 428L253.042 428L253.042 426L232.959 426L232.958 428ZM273.125 428L293.209 428L293.209 426L273.125 426L273.125 428ZM313.292 428L333.375 428L333.375 426L313.292 426L313.292 428ZM353.459 428L373.542 428L373.542 426L353.459 426L353.459 428ZM393.625 428L413.709 428L413.709 426L393.625 426L393.625 428ZM433.792 428L453.875 428L453.875 426L433.792 426L433.792 428ZM473.959 428L484 428L484 426L473.959 426L473.959 428ZM484 428C487.251 428 490.472 427.874 493.659 427.626L493.504 425.632C490.369 425.876 487.199 426 484 426L484 428ZM512.726 424.627C519.049 423.115 525.182 421.114 531.084 418.666L530.317 416.819C524.513 419.226 518.48 421.194 512.26 422.682L512.726 424.627ZM548.276 409.89C553.78 406.51 558.998 402.709 563.884 398.532L562.584 397.012C557.777 401.121 552.644 404.861 547.229 408.186L548.276 409.89ZM577.532 384.883C581.709 379.997 585.51 374.78 588.89 369.276L587.186 368.229C583.861 373.644 580.122 378.777 576.012 383.584L577.532 384.883ZM597.667 352.083C600.114 346.182 602.115 340.048 603.628 333.725L601.683 333.26C600.195 339.479 598.226 345.512 595.819 351.317L597.667 352.083ZM606.627 314.659C606.874 311.472 607 308.251 607 305L605 305C605 308.199 604.876 311.368 604.633 314.504L606.627 314.659ZM607 305L607 294.749L605 294.749L605 305L607 305ZM607 274.247L607 253.745L605 253.745L605 274.247L607 274.247ZM607 233.243L607 212.741L605 212.741L605 233.243L607 233.243ZM607 192.239L607 171.736L605 171.737L605 192.239L607 192.239ZM607 151.234L607 130.732L605 130.732L605 151.234L607 151.234ZM607 110.23L607 89.7281L605 89.7281L605 110.23L607 110.23ZM607 69.226L607 58.975L605 58.975L605 69.226L607 69.226ZM607 58.975C607 55.1361 606.624 51.384 605.906 47.7541L603.944 48.1422C604.637 51.645 605 55.2671 605 58.975L607 58.975ZM597.315 27.0256C593.117 20.7554 587.719 15.357 581.449 11.1591L580.336 12.821C586.389 16.8735 591.601 22.0852 595.653 28.1382L597.315 27.0256ZM560.721 2.56688C557.091 1.8486 553.339 1.47206 549.5 1.47185L549.5 3.47185C553.208 3.47205 556.83 3.83571 560.333 4.52884L560.721 2.56688Z" fill="#E6E7E9"/>
</svg>
