<svg width="88" height="168" viewBox="0 0 88 168" fill="none" xmlns="http://www.w3.org/2000/svg">
<path opacity="0.32" d="M79.6464 167.354C79.8417 167.549 80.1583 167.549 80.3536 167.354L83.5355 164.172C83.7308 163.976 83.7308 163.66 83.5355 163.464C83.3403 163.269 83.0237 163.269 82.8284 163.464L80 166.293L77.1716 163.464C76.9763 163.269 76.6597 163.269 76.4645 163.464C76.2692 163.66 76.2692 163.976 76.4645 164.172L79.6464 167.354ZM0.5 2C3.99755 2 7.44178 2.22726 10.8188 2.66776L10.9481 1.67616C7.52835 1.23008 4.04092 1 0.5 1V2ZM30.7401 7.99437C37.1623 10.6576 43.1574 14.1436 48.5937 18.3212L49.203 17.5283C43.6982 13.2981 37.6272 9.76777 31.1232 7.07064L30.7401 7.99437ZM63.1788 32.9063C67.3564 38.3426 70.8424 44.3377 73.5056 50.7599L74.4294 50.3768C71.7322 43.8728 68.2019 37.8018 63.9717 32.297L63.1788 32.9063ZM78.8322 70.6813C79.2727 74.0582 79.5 77.5024 79.5 81H80.5C80.5 77.4591 80.2699 73.9717 79.8238 70.5519L78.8322 70.6813ZM79.5 81V91.75H80.5V81H79.5ZM79.5 113.25L79.5 134.75H80.5L80.5 113.25H79.5ZM79.5 156.25V167H80.5V156.25H79.5ZM79.2929 167.707C79.6834 168.098 80.3166 168.098 80.7071 167.707L87.0711 161.343C87.4616 160.953 87.4616 160.319 87.0711 159.929C86.6805 159.538 86.0474 159.538 85.6569 159.929L80 165.586L74.3431 159.929C73.9526 159.538 73.3195 159.538 72.9289 159.929C72.5384 160.319 72.5384 160.953 72.9289 161.343L79.2929 167.707ZM0.5 2.5C3.97588 2.5 7.3985 2.72585 10.7541 3.16356L11.0128 1.18036C7.57163 0.731489 4.0626 0.5 0.5 0.5V2.5ZM30.5486 8.45623C36.9299 11.1025 42.887 14.5664 48.289 18.7177L49.5077 17.1318C43.9686 12.8753 37.8597 9.32288 31.3147 6.60878L30.5486 8.45623ZM62.7823 33.211C66.9336 38.613 70.3975 44.5701 73.0438 50.9514L74.8912 50.1853C72.1771 43.6403 68.6247 37.5314 64.3682 31.9923L62.7823 33.211ZM78.3364 70.7459C78.7742 74.1015 79 77.5241 79 81H81C81 77.4374 80.7685 73.9284 80.3196 70.4872L78.3364 70.7459ZM79 81V91.75H81V81H79ZM79 113.25L79 134.75H81L81 113.25H79ZM79 156.25V167H81V156.25H79Z" fill="#71B818"/>
</svg>
