<svg width="102" height="16" viewBox="0 0 102 16" fill="none" xmlns="http://www.w3.org/2000/svg">
<path d="M100.359 8.35355C100.554 8.15829 100.554 7.84171 100.359 7.64645L97.1766 4.46447C96.9813 4.2692 96.6647 4.2692 96.4695 4.46447C96.2742 4.65973 96.2742 4.97631 96.4695 5.17157L99.2979 8L96.4695 10.8284C96.2742 11.0237 96.2742 11.3403 96.4695 11.5355C96.6647 11.7308 96.9813 11.7308 97.1766 11.5355L100.359 8.35355ZM0 8.5H8.33375V7.5H0V8.5ZM25.0012 8.5H41.6687V7.5H25.0012V8.5ZM58.3362 8.5H75.0037V7.5H58.3362V8.5ZM91.6712 8.5H100.005V7.5H91.6712V8.5ZM100.712 8.70711C101.103 8.31658 101.103 7.68342 100.712 7.29289L94.3481 0.928932C93.9576 0.538408 93.3245 0.538408 92.9339 0.928932C92.5434 1.31946 92.5434 1.95262 92.9339 2.34315L98.5908 8L92.9339 13.6569C92.5434 14.0474 92.5434 14.6805 92.9339 15.0711C93.3245 15.4616 93.9576 15.4616 94.3481 15.0711L100.712 8.70711ZM0 9H8.33375V7H0V9ZM25.0012 9H41.6687V7H25.0012V9ZM58.3362 9H75.0037V7H58.3362V9ZM91.6712 9H100.005V7H91.6712V9Z" fill="#E6E7E9"/>
</svg>
