<svg width="442" height="16" viewBox="0 0 442 16" fill="none" xmlns="http://www.w3.org/2000/svg">
<path opacity="0.32" d="M441.354 8.35355C441.549 8.15829 441.549 7.84171 441.354 7.64645L438.172 4.46447C437.976 4.2692 437.66 4.2692 437.464 4.46447C437.269 4.65973 437.269 4.97631 437.464 5.17157L440.293 8L437.464 10.8284C437.269 11.0237 437.269 11.3403 437.464 11.5355C437.66 11.7308 437.976 11.7308 438.172 11.5355L441.354 8.35355ZM0 8.5H10.0227V7.5H0V8.5ZM30.0682 8.5H50.1136V7.5H30.0682V8.5ZM70.1591 8.5H90.2045V7.5H70.1591V8.5ZM110.25 8.5H130.295V7.5H110.25V8.5ZM150.341 8.5H170.386V7.5H150.341V8.5ZM190.432 8.5H210.477V7.5H190.432V8.5ZM230.523 8.5H250.568V7.5H230.523V8.5ZM270.614 8.5H290.659V7.5H270.614V8.5ZM310.705 8.5H330.75V7.5H310.705V8.5ZM350.795 8.5H370.841V7.5H350.795V8.5ZM390.886 8.5H410.932V7.5H390.886V8.5ZM430.977 8.5H441V7.5H430.977V8.5ZM441.707 8.70711C442.098 8.31658 442.098 7.68342 441.707 7.29289L435.343 0.928932C434.953 0.538408 434.319 0.538408 433.929 0.928932C433.538 1.31946 433.538 1.95262 433.929 2.34315L439.586 8L433.929 13.6569C433.538 14.0474 433.538 14.6805 433.929 15.0711C434.319 15.4616 434.953 15.4616 435.343 15.0711L441.707 8.70711ZM0 9H10.0227V7H0V9ZM30.0682 9H50.1136V7H30.0682V9ZM70.1591 9H90.2045V7H70.1591V9ZM110.25 9H130.295V7H110.25V9ZM150.341 9H170.386V7H150.341V9ZM190.432 9H210.477V7H190.432V9ZM230.523 9H250.568V7H230.523V9ZM270.614 9H290.659V7H270.614V9ZM310.705 9H330.75V7H310.705V9ZM350.795 9H370.841V7H350.795V9ZM390.886 9H410.932V7H390.886V9ZM430.977 9H441V7H430.977V9Z" fill="#71B818"/>
</svg>
