<svg width="162" height="189" viewBox="0 0 162 189" fill="none" xmlns="http://www.w3.org/2000/svg">
<path fill-rule="evenodd" clip-rule="evenodd" d="M85.8423 1.93016C83.0864 0.436403 79.8505 0.096987 76.8446 0.986402L8.46618 21.3979C5.46157 22.2938 2.9343 24.3436 1.43764 27.0987C-0.0590159 29.8537 -0.403126 33.0896 0.480639 36.0978C1.39471 39.0894 3.45601 41.5975 6.21392 43.0737C8.97183 44.55 12.202 44.8743 15.1984 43.9759L83.5768 23.6718C86.585 22.7765 89.1143 20.723 90.6085 17.9629C92.1026 15.2029 92.4393 11.9623 91.5445 8.95405C90.6489 5.94999 88.5982 3.42392 85.8423 1.93016ZM86.3695 57.673L63.4216 64.4835C63.4433 64.7842 63.4536 65.0866 63.4522 65.3902V89.2166C68.744 84.04 75.0051 79.898 81.9179 77.0504C92.541 72.6744 104.224 71.5524 115.486 73.8266C126.748 76.1009 137.08 81.6688 145.173 89.8242C153.265 97.9796 158.753 108.355 160.94 119.634C163.127 130.913 161.914 142.587 157.456 153.176C152.998 163.765 145.495 172.791 135.9 179.109C126.304 185.428 115.048 188.753 103.559 188.665C88.555 188.604 74.1762 182.711 63.4522 172.253V176.776C63.4616 178.329 63.1647 179.869 62.5784 181.308C61.9921 182.746 61.128 184.055 60.0354 185.159C58.9428 186.264 57.6433 187.142 56.2111 187.743C54.7789 188.345 53.2421 188.658 51.6888 188.665C50.1345 188.658 48.5969 188.345 47.1637 187.743C45.7305 187.142 44.4298 186.264 43.3358 185.16C42.2418 184.056 41.376 182.748 40.7877 181.309C40.1995 179.871 39.9003 178.33 39.9074 176.776V71.462L17.9553 77.977C16.4669 78.4199 14.9059 78.565 13.3614 78.4042C11.8169 78.2434 10.3192 77.7798 8.95405 77.0398C7.58885 76.2998 6.38288 75.298 5.40508 74.0917C4.42727 72.8854 3.69681 71.4982 3.25544 70.0094C2.8126 68.521 2.66743 66.96 2.82825 65.4155C2.98907 63.871 3.45272 62.3733 4.19268 61.0082C4.93265 59.643 5.93443 58.437 7.14075 57.4592C8.34707 56.4814 9.73428 55.7509 11.2231 55.3095L79.6373 34.9876C81.1256 34.5447 82.6867 34.3996 84.2312 34.5604C85.7757 34.7212 87.2733 35.1849 88.6385 35.9248C90.0037 36.6648 91.2097 37.6666 92.1875 38.8729C93.1653 40.0792 93.8958 41.4664 94.3371 42.9552C95.232 45.9635 94.8953 49.204 93.4011 51.9641C91.907 54.7241 89.3776 56.7776 86.3695 57.673ZM122.607 159.193C116.96 162.929 110.33 164.905 103.559 164.869C99.0763 164.869 94.638 163.984 90.4988 162.263C86.3597 160.542 82.6015 158.02 79.4402 154.842C76.2789 151.664 73.7768 147.893 72.0777 143.745C70.3787 139.597 69.5161 135.154 69.5397 130.671C69.5398 123.9 71.5501 117.281 75.3158 111.653C79.0816 106.025 84.4332 101.642 90.6926 99.0593C96.9519 96.4762 103.837 95.8096 110.476 97.1437C117.114 98.4778 123.208 101.753 127.983 106.553C132.759 111.354 136.001 117.464 137.301 124.11C138.6 130.755 137.897 137.637 135.281 143.883C132.665 150.128 128.254 155.457 122.607 159.193Z" fill="white"/>
</svg>
