<svg width="46" height="46" viewBox="0 0 46 46" fill="none" xmlns="http://www.w3.org/2000/svg">
<path fill-rule="evenodd" clip-rule="evenodd" d="M46 23C46 35.7025 35.7025 46 23 46C10.2975 46 0 35.7025 0 23C0 10.2975 10.2975 0 23 0C35.7025 0 46 10.2975 46 23ZM22.8896 11.0626C23.2764 10.9481 23.6929 10.9918 24.0475 11.1841C24.4022 11.3763 24.6661 11.7014 24.7814 12.088C24.8965 12.4751 24.8532 12.8922 24.6609 13.2474C24.4686 13.6026 24.1431 13.8669 23.756 13.9821L14.956 16.5952C14.5703 16.7108 14.1546 16.669 13.7997 16.479C13.4448 16.2891 13.1795 15.9663 13.0619 15.5813C12.9481 15.1941 12.9924 14.7777 13.185 14.4231C13.3776 14.0686 13.7029 13.8048 14.0896 13.6895L22.8896 11.0626ZM21.162 19.2344L24.1154 18.3579C24.5025 18.2427 24.828 17.9784 25.0203 17.6232C25.2126 17.268 25.256 16.8509 25.1408 16.4638C25.084 16.2722 24.99 16.0937 24.8641 15.9384C24.7383 15.7832 24.5831 15.6542 24.4074 15.559C24.2317 15.4638 24.039 15.4041 23.8402 15.3834C23.6414 15.3627 23.4405 15.3814 23.249 15.4384L14.4444 18.0537C14.2528 18.1105 14.0743 18.2046 13.919 18.3304C13.7638 18.4562 13.6348 18.6114 13.5396 18.7871C13.4444 18.9628 13.3847 19.1556 13.364 19.3543C13.3433 19.5531 13.362 19.754 13.419 19.9455C13.4758 20.1371 13.5698 20.3157 13.6956 20.4709C13.8215 20.6262 13.9767 20.7551 14.1524 20.8503C14.3281 20.9456 14.5208 21.0052 14.7196 21.0259C14.9183 21.0466 15.1192 21.0279 15.3108 20.9709L18.1359 20.1325V33.6859C18.135 33.886 18.1735 34.0842 18.2492 34.2693C18.3249 34.4545 18.4363 34.6229 18.5771 34.765C18.7179 34.9071 18.8853 35.02 19.0697 35.0974C19.2542 35.1748 19.4521 35.2151 19.6521 35.216C19.852 35.2151 20.0498 35.1748 20.2341 35.0973C20.4184 35.0199 20.5857 34.9069 20.7263 34.7648C20.8669 34.6227 20.9781 34.4543 21.0535 34.2692C21.129 34.084 21.1672 33.8858 21.166 33.6859V33.1038C22.5461 34.4497 24.3966 35.2082 26.3275 35.216C27.8061 35.2274 29.2547 34.7994 30.4896 33.9862C31.7246 33.1731 32.6901 32.0115 33.2639 30.6487C33.8376 29.286 33.9937 27.7836 33.7122 26.332C33.4308 24.8804 32.7245 23.5452 31.6831 22.4956C30.6416 21.4461 29.3119 20.7295 27.8625 20.4368C26.4132 20.1441 24.9096 20.2885 23.5424 20.8517C22.6528 21.2182 21.847 21.7512 21.166 22.4174V19.3511C21.1662 19.312 21.1648 19.2731 21.162 19.2344ZM26.3275 32.1536C27.199 32.1581 28.0522 31.9039 28.7789 31.4231C29.5057 30.9423 30.0734 30.2565 30.4101 29.4527C30.7467 28.6489 30.8372 27.7633 30.67 26.908C30.5028 26.0528 30.0854 25.2664 29.4708 24.6486C28.8563 24.0308 28.0721 23.6093 27.2177 23.4376C26.3634 23.2659 25.4773 23.3517 24.6717 23.6841C23.8662 24.0166 23.1774 24.5806 22.6928 25.3049C22.2082 26.0292 21.9494 26.881 21.9494 27.7524C21.9464 28.3293 22.0574 28.9011 22.2761 29.4349C22.4947 29.9688 22.8167 30.4541 23.2236 30.8631C23.6304 31.2721 24.1141 31.5967 24.6468 31.8181C25.1795 32.0396 25.7507 32.1536 26.3275 32.1536Z" fill="#313447"/>
</svg>
