<svg width="184" height="64" viewBox="0 0 184 64" fill="none" xmlns="http://www.w3.org/2000/svg">
<path d="M176.525 0H7.47461C3.3465 0 0 3.43845 0 7.68V56.32C0 60.5616 3.3465 64 7.47461 64H176.525C180.654 64 184 60.5616 184 56.32V7.68C184 3.43845 180.654 0 176.525 0Z" fill="black"/>
<path fill-rule="evenodd" clip-rule="evenodd" d="M22.4453 30.7229C22.4453 30.7229 9.75021 23.496 9.00461 23.0714C8.25777 22.6468 7.51465 22.9044 7.51465 23.7918V39.2198V54.9614C7.51465 55.6257 8.04562 55.9138 8.69446 55.5454C9.34205 55.1769 22.4453 47.7166 22.4453 47.7166C22.4453 47.7166 24.2253 46.7038 25.1153 46.1974C26.5477 45.3825 29.4125 43.7525 29.4125 43.7525C29.4125 43.7525 35.3239 40.3864 36.1105 39.9402C36.8958 39.4926 36.8201 38.8793 36.1576 38.5261C35.4939 38.1742 29.4125 34.6883 29.4125 34.6883L22.4453 30.7229Z" fill="url(#paint0_linear)"/>
<mask id="mask0" mask-type="alpha" maskUnits="userSpaceOnUse" x="7" y="22" width="18" height="34">
<path d="M24.7893 39.1681L8.09603 22.9121C7.70657 23.0051 7.47314 23.3044 7.47314 23.8081V39.1681V54.9121C7.47314 55.3395 7.64082 55.5938 7.84688 55.6801L24.7893 39.1681Z" fill="white"/>
</mask>
<g mask="url(#mask0)">
<path d="M24.7893 39.1681L8.09603 22.9121C7.70657 23.0051 7.47314 23.3044 7.47314 23.8081V39.1681V54.9121C7.47314 55.3395 7.64082 55.5938 7.84688 55.6801L24.7893 39.1681Z" fill="url(#paint1_linear)"/>
</g>
<mask id="mask1" mask-type="alpha" maskUnits="userSpaceOnUse" x="7" y="39" width="23" height="17">
<path d="M8.53466 55.5892L18.1834 50.1431C20.5594 48.7904 22.4451 47.7168 22.4451 47.7168L29.4618 43.8336L24.7904 39.1697L7.84814 55.6837C8.03698 55.7461 8.36981 55.712 8.62947 55.5803" fill="white"/>
</mask>
<g mask="url(#mask1)">
<path fill-rule="evenodd" clip-rule="evenodd" d="M22.4219 30.7197C22.3974 30.7775 9.70734 23.5373 8.96758 23.1677C8.21549 22.6865 7.47266 22.9446 7.47266 23.8077V39.2957C7.47266 39.2899 7.47266 54.3937 7.47266 55.0397C7.47266 55.726 8.00343 56.0147 8.59385 55.6797C9.29935 55.2764 22.3974 47.8024 22.4219 47.7437L29.3982 43.7757C29.3619 43.831 35.2711 40.4587 36.0008 40.0637C36.8423 39.5633 36.7667 38.9489 36.1253 38.6557C35.441 38.2425 29.3619 34.7501 29.3982 34.6877L22.4219 30.7197Z" fill="url(#paint2_linear)"/>
</g>
<mask id="mask2" mask-type="alpha" maskUnits="userSpaceOnUse" x="8" y="22" width="22" height="18">
<path d="M8.98146 23.0588C8.6601 22.882 8.34081 22.8314 8.08252 22.9029L24.7897 39.1825L29.4118 34.6883L22.4446 30.7229C22.4446 30.7229 15.8778 26.9846 11.9127 24.7273L8.98146 23.0588Z" fill="white"/>
</mask>
<g mask="url(#mask2)">
<path d="M8.98146 23.0588C8.6601 22.882 8.34081 22.8314 8.08252 22.9029L24.7897 39.1825L29.4118 34.6883L22.4446 30.7229C22.4446 30.7229 15.8778 26.9846 11.9127 24.7273L8.98146 23.0588Z" fill="url(#paint3_linear)"/>
</g>
<path fill-rule="evenodd" clip-rule="evenodd" d="M126.024 44.6552L124.644 46.0005C124.325 46.1816 124.008 46.3918 123.692 46.5411C122.734 46.9908 121.76 47.1038 120.894 47.1038C119.972 47.1038 118.528 47.042 117.054 45.9404C115.007 44.4502 114.112 41.8885 114.112 39.6562C114.112 35.0345 117.753 32.7678 120.722 32.7678C121.76 32.7678 122.825 33.0364 123.692 33.6026C125.133 34.5875 125.506 35.8675 125.713 36.553L118.932 39.3842L116.712 39.5626C117.43 43.3522 119.911 45.5562 122.652 45.5562C124.021 45.5562 125.037 45.0942 125.97 44.6181C125.97 44.6181 126.157 44.5174 126.024 44.6552ZM121.881 37.0529C122.425 36.8449 122.708 36.6652 122.708 36.2472C122.708 35.0485 121.419 33.6638 119.882 33.6638C118.743 33.6638 116.604 34.5976 116.604 37.84C116.604 38.346 116.661 38.8849 116.69 39.4238L121.881 37.0529Z" fill="white"/>
<path fill-rule="evenodd" clip-rule="evenodd" d="M111.873 44.4932C111.873 45.6485 112.072 45.8283 113.017 45.919C113.51 45.9789 114 46.0054 114.486 46.0653L113.423 46.72H108.356C109.021 45.8283 109.135 45.7393 109.135 45.1453V44.4818L109.124 26.8013H106.887L109.04 25.728H113.152C112.261 26.262 111.994 26.5872 111.88 27.6279L111.873 44.4932Z" fill="white"/>
<path fill-rule="evenodd" clip-rule="evenodd" d="M104.013 34.227C104.673 34.7883 106.048 35.9795 106.048 38.2386C106.048 40.4404 104.849 41.4783 103.641 42.4607C103.27 42.8475 102.836 43.2669 102.836 43.9153C102.836 44.5735 103.27 44.9303 103.582 45.1964L104.619 46.0255C105.879 47.1277 107.029 48.1383 107.029 50.1912C107.029 52.9878 104.416 55.8081 99.4783 55.8081C95.3192 55.8081 93.3086 53.7561 93.3086 51.556C93.3086 50.4855 93.8232 48.9692 95.5208 47.9304C97.3001 46.8035 99.7105 46.6528 101.002 46.5647C100.598 46.0255 100.138 45.4607 100.138 44.5391C100.138 44.0352 100.285 43.7347 100.426 43.3805C100.112 43.4114 99.7956 43.4431 99.5081 43.4431C96.4641 43.4431 94.7434 41.0906 94.7434 38.7725C94.7434 37.4051 95.3456 35.8878 96.5823 34.7883C98.2187 33.3926 100.17 33.1521 101.72 33.1521H107.635L105.796 34.227H104.013ZM101.994 47.3924C101.757 47.3601 101.614 47.3601 101.328 47.3601C101.066 47.3601 99.5025 47.4193 98.2918 47.8445C97.6513 48.0893 95.8001 48.8132 95.8001 50.9632C95.8001 53.1088 97.7988 54.6561 100.891 54.6561C103.669 54.6561 105.143 53.2631 105.143 51.3875C105.143 49.8438 104.189 49.0294 101.994 47.3924ZM102.806 41.6661C103.466 40.9818 103.524 40.0367 103.524 39.5C103.524 37.3683 102.298 34.0481 99.9229 34.0481C99.1819 34.0481 98.3791 34.4337 97.9234 35.0301C97.4399 35.6476 97.2951 36.4486 97.2951 37.219C97.2951 39.204 98.4112 42.4961 100.866 42.4961C101.583 42.4961 102.353 42.1351 102.806 41.6661Z" fill="white"/>
<path fill-rule="evenodd" clip-rule="evenodd" d="M86.1237 47.1038C81.5517 47.1038 79.1055 43.3981 79.1055 40.0427C79.1055 36.1223 82.1808 32.7678 86.555 32.7678C90.7835 32.7678 93.4318 36.2136 93.4318 39.8316C93.4318 43.3652 90.8142 47.1038 86.1237 47.1038ZM89.6993 44.6802C90.3972 43.7193 90.5665 42.52 90.5665 41.3509C90.5665 38.7067 89.3555 33.6638 85.7761 33.6638C84.8242 33.6638 83.8655 34.0508 83.1744 34.6825C82.0471 35.7333 81.8462 37.0536 81.8462 38.349C81.8462 41.3153 83.2557 46.2078 86.7537 46.2078C87.8827 46.2078 89.0347 45.6393 89.6993 44.6802Z" fill="white"/>
<path fill-rule="evenodd" clip-rule="evenodd" d="M70.801 47.1038C66.2262 47.1038 63.7832 43.3981 63.7832 40.0427C63.7832 36.1223 66.8606 32.7678 71.235 32.7678C75.4627 32.7678 78.1095 36.2136 78.1095 39.8316C78.1095 43.3652 75.4943 47.1038 70.801 47.1038ZM74.3783 44.6802C75.0714 43.7193 75.2443 42.52 75.2443 41.3509C75.2443 38.7067 74.0292 33.6638 70.4515 33.6638C69.4957 33.6638 68.5468 34.0508 67.8536 34.6825C66.7241 35.7333 66.5239 37.0536 66.5239 38.349C66.5239 41.3153 67.9401 46.2078 71.4339 46.2078C72.5608 46.2078 73.7117 45.6393 74.3783 44.6802Z" fill="white"/>
<path fill-rule="evenodd" clip-rule="evenodd" d="M61.8865 46.2181L58.0139 47.1352C56.4449 47.391 55.0359 47.6158 53.5438 47.6158C46.0743 47.6158 43.228 41.9303 43.228 37.4804C43.228 32.0463 47.2607 27.0078 54.167 27.0078C55.6282 27.0078 57.0338 27.23 58.3144 27.5911C60.344 28.1807 61.2933 28.9074 61.8865 29.3332L59.6369 31.5426L58.6885 31.7621L59.3647 30.6477C58.4488 29.7227 56.765 28.0152 53.5695 28.0152C49.2972 28.0152 46.0743 31.3735 46.0743 36.2766C46.0743 41.5426 49.7543 46.4961 55.6565 46.4961C57.3907 46.4961 58.2836 46.1358 59.0942 45.7994V41.285L55.005 41.5125L57.1725 40.3086H62.9112L62.2092 41.007C62.0201 41.1734 61.9944 41.2301 61.9413 41.4532C61.9131 41.7081 61.8865 42.5189 61.8865 42.8039V46.2181Z" fill="white"/>
<path fill-rule="evenodd" clip-rule="evenodd" d="M134.382 44.7921V52.3518H132.924V33.1152H134.382V35.3062C135.331 33.8901 137.067 32.7678 139.082 32.7678C142.697 32.7678 145.132 35.592 145.132 40.0628C145.132 44.5036 142.697 47.3868 139.082 47.3868C137.18 47.3868 135.475 46.3762 134.382 44.7921ZM143.637 40.178C143.637 36.773 141.926 34.1758 138.89 34.1758C137.005 34.1758 135.202 35.7117 134.419 37.0512V43.2738C135.202 44.6159 137.005 46.2078 138.89 46.2078C141.926 46.2078 143.637 43.5885 143.637 40.178Z" fill="white"/>
<path fill-rule="evenodd" clip-rule="evenodd" d="M147.125 27.7761H148.62V47.1041H147.125V27.7761Z" fill="white"/>
<path fill-rule="evenodd" clip-rule="evenodd" d="M164.872 51.0209C165.184 51.1643 165.716 51.2522 166.054 51.2522C166.945 51.2522 167.566 50.8766 168.124 49.5499L169.187 47.0682L163.444 33.0239H165.071L169.997 45.1943L174.876 33.0239H176.525L169.52 50.0153C168.794 51.766 167.65 52.6079 166.079 52.6079C165.608 52.6079 164.986 52.5217 164.622 52.4065L164.872 51.0209Z" fill="white"/>
<path fill-rule="evenodd" clip-rule="evenodd" d="M160.758 47.0848C160.66 46.5992 160.587 46.1711 160.532 45.8138C160.488 45.4573 160.462 45.0929 160.462 44.7223C159.96 45.4821 159.247 46.1145 158.338 46.6124C157.427 47.1139 156.562 47.3598 155.376 47.3598C153.948 47.3598 152.839 46.9981 152.048 46.264C151.259 45.5307 150.862 44.5375 150.862 43.2806C150.862 42.0256 151.437 41.0067 152.583 40.2274C153.729 39.4447 155.21 39.0555 157.043 39.0555H160.462V37.3158C160.462 36.3137 160.13 35.5256 159.468 34.9542C158.803 34.382 157.871 34.0928 156.661 34.0928C155.556 34.0928 154.659 34.3572 153.976 34.872C153.299 35.3974 152.958 36.0483 152.958 36.8329H151.458L151.427 36.7577C151.373 35.6998 151.842 34.772 152.841 33.9707C153.836 33.1703 155.139 32.7678 156.743 32.7678C158.341 32.7678 159.635 33.1641 160.61 33.9548C161.584 34.7375 162.073 35.8688 162.073 37.3476V44.2553C162.073 44.7515 162.096 45.2309 162.156 45.6979C162.218 46.1658 162.317 46.6328 162.448 47.0848H160.758ZM155.553 46.0798C156.797 46.0798 157.691 45.7918 158.605 45.2219C159.513 44.6556 160.131 43.9168 160.455 43.0225V40.3198H157.022C155.71 40.3198 154.625 40.6203 153.771 41.2266C152.915 41.8312 152.482 42.5628 152.482 43.4136C152.482 44.2164 152.756 44.8583 153.302 45.3446C153.85 45.8362 154.598 46.0798 155.553 46.0798Z" fill="white"/>
<path fill-rule="evenodd" clip-rule="evenodd" d="M42.7349 14.7597C42.7349 12.0026 44.8777 10.229 47.5423 10.229C49.3281 10.229 50.496 11.0436 51.2238 12.0411L49.9194 12.7638C49.4251 12.1067 48.5592 11.5957 47.5423 11.5957C45.7298 11.5957 44.3834 12.9082 44.3834 14.7597C44.3834 16.5841 45.7298 17.9237 47.5423 17.9237C48.4768 17.9237 49.3006 17.5168 49.7125 17.1362V15.7835H46.9656V14.4307H51.3061V17.7006C50.4137 18.6595 49.1221 19.3027 47.5423 19.3027C44.8777 19.3027 42.7349 17.5045 42.7349 14.7597Z" fill="white"/>
<path fill-rule="evenodd" clip-rule="evenodd" d="M53.3838 19.1691V10.3623H59.7473V11.7233H55.0132V13.9932H59.6499V15.3534H55.0132V17.8089H59.7473V19.1691H53.3838Z" fill="white"/>
<path fill-rule="evenodd" clip-rule="evenodd" d="M64.0749 19.1691V11.7233H61.3057V10.3623H68.4484V11.7233H65.6792V19.1691H64.0749Z" fill="white"/>
<path fill-rule="evenodd" clip-rule="evenodd" d="M74.1631 10.3623H75.7215V19.1691H74.1631V10.3623Z" fill="white"/>
<path fill-rule="evenodd" clip-rule="evenodd" d="M80.1802 19.1691V11.7233H77.4102V10.3623H84.5529V11.7233H81.7845V19.1691H80.1802Z" fill="white"/>
<path fill-rule="evenodd" clip-rule="evenodd" d="M89.877 14.7662C89.877 12.1489 91.8369 10.229 94.6176 10.229C97.3826 10.229 99.3573 12.1489 99.3573 14.7662C99.3573 17.3828 97.3826 19.3027 94.6176 19.3027C91.8369 19.3027 89.877 17.3828 89.877 14.7662ZM97.669 14.6991C97.669 12.9032 96.4681 11.5634 94.6176 11.5634C92.7532 11.5634 91.5652 12.9032 91.5652 14.6991C91.5652 16.4812 92.7532 17.8349 94.6176 17.8349C96.4681 17.8349 97.669 16.4812 97.669 14.6991Z" fill="white"/>
<path fill-rule="evenodd" clip-rule="evenodd" d="M107.549 19.1691L102.779 12.8715V19.1691H101.176V10.3623H102.821L107.494 16.4628V10.3623H109.098V19.1691H107.549Z" fill="white"/>
<defs>
<linearGradient id="paint0_linear" x1="24.6963" y1="26.0206" x2="35.6678" y2="41.6822" gradientUnits="userSpaceOnUse">
<stop stop-color="#FF177B"/>
<stop offset="1" stop-color="#FFEC73"/>
</linearGradient>
<linearGradient id="paint1_linear" x1="13.898" y1="8.48264" x2="-5.96275" y2="49.5259" gradientUnits="userSpaceOnUse">
<stop stop-color="#064AA2"/>
<stop offset="1" stop-color="#63FFD4"/>
</linearGradient>
<linearGradient id="paint2_linear" x1="30.3951" y1="39.3737" x2="6.66478" y2="53.181" gradientUnits="userSpaceOnUse">
<stop stop-color="#FF4521"/>
<stop offset="1" stop-color="#8A33DB"/>
</linearGradient>
<linearGradient id="paint3_linear" x1="8.08252" y1="18.9266" x2="16.8627" y2="41.1277" gradientUnits="userSpaceOnUse">
<stop stop-color="#00A3B5"/>
<stop offset="1" stop-color="#D6FFA1"/>
</linearGradient>
</defs>
</svg>
