<svg width="44" height="40" viewBox="0 0 44 40" fill="none" xmlns="http://www.w3.org/2000/svg">
<path d="M22.0912 0.90918C10.2923 0.90918 0.727539 8.3861 0.727539 17.6092C0.727539 23.5721 4.72624 28.8043 10.7413 31.7588C10.4141 32.8777 8.63845 38.9569 8.56779 39.4345C8.56779 39.4345 8.52527 39.7933 8.75965 39.9302C8.99403 40.067 9.26971 39.9607 9.26971 39.9607C9.94184 39.8677 17.0639 34.9078 18.2967 34.0465C19.5282 34.2194 20.7962 34.3092 22.0912 34.3092C33.8901 34.3092 43.4548 26.8325 43.4548 17.6092C43.4548 8.3861 33.8901 0.90918 22.0912 0.90918Z" fill="black"/>
<path d="M10.1512 23.6366C9.46235 23.6366 8.90216 23.1089 8.90216 22.46V15.1404H6.95325C6.27732 15.1404 5.72754 14.5991 5.72754 13.934C5.72754 13.2688 6.27753 12.7275 6.95325 12.7275H13.3491C14.0251 12.7275 14.5748 13.2688 14.5748 13.934C14.5748 14.5991 14.0248 15.1404 13.3491 15.1404H11.4002V22.46C11.4002 23.1089 10.84 23.6366 10.1512 23.6366ZM21.1035 23.6206C20.5827 23.6206 20.1842 23.412 20.0641 23.0764L19.4456 21.4792L15.6369 21.479L15.018 23.0773C14.8983 23.4122 14.5001 23.6206 13.9793 23.6206C13.7053 23.6209 13.4345 23.5629 13.1853 23.4506C12.841 23.2939 12.51 22.8631 12.8893 21.701L15.877 13.9438C16.0874 13.3538 16.7267 12.746 17.5402 12.7277C18.3561 12.7458 18.9954 13.3538 19.2062 13.945L22.1927 21.6988C22.5728 22.8635 22.2418 23.2945 21.8975 23.4508C21.6482 23.5629 21.3775 23.6208 21.1035 23.6206C21.1035 23.6206 21.1033 23.6206 21.1035 23.6206ZM18.7889 19.2968L17.5413 15.8008L16.2937 19.2968H18.7889ZM24.2028 23.457C23.5427 23.457 23.0058 22.9502 23.0058 22.3275V13.9596C23.0058 13.2801 23.5779 12.7275 24.2808 12.7275C24.9838 12.7275 25.5559 13.2801 25.5559 13.9596V21.1981H28.2101C28.8702 21.1981 29.4071 21.7049 29.4071 22.3275C29.4071 22.9502 28.8702 23.457 28.2101 23.457H24.2028ZM31.142 23.6206C30.4531 23.6206 29.893 23.068 29.893 22.3885V13.9596C29.893 13.2801 30.4531 12.7275 31.142 12.7275C31.8308 12.7275 32.391 13.2801 32.391 13.9596V16.6078L35.8758 13.1703C36.055 12.9935 36.3013 12.8961 36.5686 12.8961C36.8804 12.8961 37.1935 13.0288 37.4281 13.26C37.6469 13.4756 37.7775 13.753 37.7954 14.0411C37.8135 14.3317 37.7154 14.5981 37.5197 14.7913L34.6734 17.5986L37.7479 21.6164C37.8472 21.7453 37.9195 21.8924 37.9606 22.0491C38.0018 22.2058 38.011 22.369 37.9877 22.5292C37.9654 22.6895 37.9111 22.8439 37.828 22.9834C37.7448 23.1229 37.6343 23.2447 37.5031 23.3418C37.2871 23.5037 37.0231 23.5911 36.7518 23.5904C36.5583 23.5913 36.3672 23.5475 36.194 23.4624C36.0207 23.3774 35.87 23.2535 35.754 23.1007L32.8248 19.2722L32.3914 19.6997V22.3879C32.391 22.7147 32.2593 23.028 32.0251 23.2591C31.7908 23.4902 31.4733 23.6202 31.142 23.6206Z" fill="#FFE812"/>
</svg>
